<svg xmlns="http://www.w3.org/2000/svg" viewBox="0 0 470.97 107"><defs><style>.cls-1{fill:#fe7108;}.cls-2{fill:#646464;}</style></defs><title>jupyterbookAsset 1@1</title><g id="Layer_2" data-name="Layer 2"><g id="Layer_1-2" data-name="Layer 1"><g id="_5sLu8c" data-name="5sLu8c"><path class="cls-1" d="M262,0c1.68,4.18.76,6.89-3.47,9.38-4,2.37-5.17,7.2-5.56,11.74a107.37,107.37,0,0,0-.28,12.43c.23,8-1.41,15.17-9,20,7.21,4.67,9.12,11.42,9,19.14-.07,4-.15,8,.15,12,.56,7.17,3.12,13.2,10.51,15.92L262,107h-2c-1-1.56-2.82-1.52-4.26-2.22-9.16-4.47-13.41-12-13.74-21.93-.15-4.65.09-9.32-.13-14-.3-6.45-2.47-9.32-8.73-10.89-3-.75-2.44-2.64-2.46-4.54s-.5-4,2.55-4.41c6.09-.76,8.13-5.1,8.62-10.5a39.71,39.71,0,0,0,.1-7C240.67,16.86,245.2,5.51,260,0Z"/><path class="cls-1" d="M441,0c8.21,3.18,15,7.77,17.44,16.92,1.15,4.28.73,8.59.92,12.89a107.62,107.62,0,0,0,.63,11c.64,4.24,2.9,7.56,7.52,8.17,2.75.37,3.56,1.57,3.49,4.24s-.15,4.41-3.4,4.83c-4.58.6-6.9,3.89-7.56,8.14a45.2,45.2,0,0,0-.61,10.44c1.16,14.64-4,25.28-18.43,30.42h-1c-.64-2-1.29-4.08-2-6.34,8.6-3.37,10.55-10.54,10.87-18.57.13-3.33.17-6.67,0-10-.39-7.95,2.23-14.34,9.64-18.65-7.74-4.26-10.06-10.94-9.65-19a102,102,0,0,0,0-10.49c-.41-7.72-2.65-14.43-10.83-17.72C438.68,4,439.32,2,440,0Z"/><path class="cls-2" d="M65.15,42.34v6.33c4.4-5.93,9.36-8.5,15.77-7.86a16.07,16.07,0,0,1,8.3,3c10,7.55,9.78,27.59-.3,35C82.3,83.62,73.1,82.23,65.76,74.6c0,6,0,11.15,0,16.33,0,1.72.59,3.83-2.41,3.87S61,92.66,60.94,91c0-15.15,0-30.31-.07-45.46C60.85,42.45,61.62,41.11,65.15,42.34ZM91.88,61.16a19.56,19.56,0,0,0-2.4-10.08A12.53,12.53,0,0,0,68.9,49.17c-4.62,5.75-4.17,18.89.79,24.36a11.61,11.61,0,0,0,5.91,3.52C85.05,79.45,91.94,72.74,91.88,61.16Z"/><path class="cls-2" d="M192,68.25c-2.91,9.51-8,13.5-16.65,13.32-8.81-.18-14.36-4.79-16.58-13.66a26.75,26.75,0,0,1,.1-13.79c2.37-8.8,8.15-13.36,16.87-13.34,7.85,0,13.38,4.79,15.71,13.4a28.72,28.72,0,0,1,.7,7.94H163.34c-.82,6.91,2.72,13.25,8,14.94,6.23,2,12.29-.46,15.24-6.89C187.88,67.24,189.55,67.82,192,68.25Zm-28.83-10h23.94c-.24-8.14-4.67-13.23-11.37-13.43C168.71,44.61,163.6,49.94,163.13,58.26Z"/><path class="cls-2" d="M99.87,42.44c3.56-1.47,5.07-.12,6.2,3,3.5,9.49,7.25,18.88,11.29,29.29,3.8-10.46,7.34-19.88,10.61-29.39,1-2.91,2.34-4.2,5.95-2.86C127.83,58.21,121.82,74,115.6,89.67c-1.7,4.29-5.45,5.55-9.86,5.09-1.3-.14-2.22-.59-2.28-2.08-.07-1.65.92-1.65,2.23-1.84,7-1,10.51-7.59,7.83-14.27Z"/><path class="cls-2" d="M52,42.41c0,11.27.07,22.24-.09,33.21,0,1.63,1.58,4.34-1.62,4.91-3.77.65-2-3-3.43-4.78-4.46,4.17-9.43,6.86-15.9,5.53-5.47-1.12-9.44-4.14-9.78-9.71-.58-9.12-.36-18.28-.52-27.43,0-1.75.73-2.27,2.4-2.28,1.87,0,2.17,1,2.16,2.49q0,10.24,0,20.47c0,8.87,2.56,12.34,9.19,12.72,6.93.4,11.93-4.05,12.51-11.91.49-6.62.37-13.3.23-19.95C47.06,42.19,48.26,41.13,52,42.41Z"/><path class="cls-2" d="M146.17,29.59V41.11c1.75,1.25,3.46.57,5.05.76,1.24.14,2.75-.36,2.8,1.8s-1.4,2.24-3,2.22-2.93,0-4.93,0c0,9.29-.08,18.22,0,27.14,0,3.16,2.22,4.15,5.14,4,1.29-.08,2.74-.26,2.7,1.86,0,1.93-1.3,2-2.68,2.1-6.57.69-9.61-1.83-9.76-8.58-.17-7.64-.09-15.28-.09-22.92,0-1.91.1-3.68-2.71-3.61-1.59,0-4.12.88-3.91-2.21s2.78-1.28,4.25-1.77a7.69,7.69,0,0,1,1.45-.25C143.64,38.22,138,31.52,146.17,29.59Z"/><path class="cls-2" d="M6.88,42.33c3.11-.86,4.85-.77,4.81,2.86-.14,13.15.09,26.3-.15,39.45-.14,7.29-3.29,10.51-8.83,10.15-1.39-.09-2.68,0-2.71-2,0-1.6.81-1.93,2.17-2,4.46-.18,4.71-3.35,4.71-6.71Z"/><path class="cls-2" d="M203.1,41.73v8.33c3.72-5.6,7.78-9.18,14.3-8.68.62,2.5,1.26,4.23-2.53,4.85-7.47,1.23-11.19,5.91-11.42,13.52-.16,5.65-.16,11.32,0,17,.1,3.29-1.2,4.19-4.66,3,0-11.8,0-23.74,0-35.69C198.79,40.8,201,42.27,203.1,41.73Z"/><path class="cls-2" d="M395.36,22.31H408V58.45l12.4-13.65c-.94,0-3.2-1.33-1.12-4.67h16.22c1,3,.49,4.24-2.88,5.29-5.55,1.73-8.47,7.18-12.45,11.1-1.06,1,.44,2.12,1.09,3,3.48,4.46,7.06,8.84,10.54,13.3,1,1.23,1.94,2.22,3.65,2.18,3.53-.09,4.23,1.75,3.14,5H421.33c-.85-3-.81-5.19,3.54-5-3.64-4.71-6.77-8.76-10.12-13.11-2.44,2.79-6,4.19-6.4,8.12-.25,2.51-.49,5.22,3.43,5.09,2.17-.07,2.86,1.22,2.75,3.23-.14,2.39-1.91,1.87-3.3,1.88-5.15,0-10.3,0-15.77,0-.54-2.42-1.59-5,2.22-5,3.11-.07,3.36-1.64,3.34-4.12-.08-13.14-.06-26.29,0-39.44,0-2.16-.05-4-2.85-4.14C394.77,27.3,394.58,25.28,395.36,22.31Z"/><path class="cls-2" d="M276.37,75.6c.3,5.49-2.9,4.77-5.95,4.39-1.27-1.64-.68-3.54-.68-5.3-.06-14-.1-28,0-42,0-3-.2-5.38-3.89-5.48-2,0-2.45-1.15-2.37-2.94.09-2.19,1.53-2.09,3.11-2.19C277,21.4,277,21.38,277,31.51V43.59c14.95-10.67,25.11-.06,26.66,11.62a36.94,36.94,0,0,1,.05,11C301.24,80.77,288.74,85.54,276.37,75.6Zm20.38-14.89c-.28-3.47-.53-7.48-2.67-11-2.34-3.84-5.83-5.59-10.18-4.26s-7.3,3.79-7,9c.22,3.81,0,7.65,0,11.47.05,5.2,3.3,8.65,8.48,9.09C292.5,75.54,296.65,70.5,296.75,60.71Z"/><path class="cls-2" d="M390.35,59.63c.07,13.93-7.39,21.92-19.52,21.47a15.28,15.28,0,0,1-8.34-2.93c-7.25-5.1-8.61-12.69-8-20.79s4.26-14.28,12.15-17.29c10.44-4,21.63,3.21,23.35,14.95C390.24,56.68,390.26,58.35,390.35,59.63ZM383,59.44a18.26,18.26,0,0,0-1.6-8.12c-1.61-3.82-4.3-6.21-8.7-6.33a8.83,8.83,0,0,0-9,5.77A22.66,22.66,0,0,0,364,70.07c1.73,3.61,4.74,5.32,8.89,5.19s6.49-2.22,8.21-5.52A20.27,20.27,0,0,0,383,59.44Z"/><path class="cls-2" d="M347,60.4c.1,16-13,25.5-25.91,18.85C314,75.61,310,66.54,311.21,57s6.75-16,15-17.78C335.85,37.14,345.67,45,347,55.92A37.16,37.16,0,0,1,347,60.4Zm-28.33.79a18.77,18.77,0,0,0,1.88,8.7c3.7,6.85,12.49,7.34,16.74,1,3.7-5.53,3.52-16.55-.36-21.88a9.39,9.39,0,0,0-15.65.2C319.09,52.35,318.72,56,318.65,61.19Z"/></g></g></g></svg>