<svg xmlns="http://www.w3.org/2000/svg" viewBox="0 0 314 119.87"><defs><style>.cls-1{fill:#fe6f04;}.cls-2{fill:#636363;}</style></defs><title>mystAsset 2@1</title><g id="Layer_2" data-name="Layer 2"><g id="Layer_1-2" data-name="Layer 1"><g id="_7PfJ08" data-name="7PfJ08"><path class="cls-1" d="M0,54.94C8.22,54.9,12.36,51,12.8,42.4c.29-5.65,0-11.33.17-17,.3-11.91,7.44-21.24,18.75-25,2.11-.69,3.65-.81,4.11,1.67.35,1.88,2.82,3.94-1,5.59-6.93,3-9.14,9.35-9.76,16.23-.43,4.8-.23,9.66-.22,14.49,0,8-1.43,15.29-8.54,20.2-1.55,1.07-1.07,1.49.17,2.4C23.15,65.93,25,72.94,25.06,80.8c.08,6.13-.76,12.3.73,18.4,1.36,5.59,3.78,10.3,9.31,12.78,4,1.81.76,4.25.42,6.27-.44,2.61-2.27,1.42-3.84.86C19.51,114.75,13.13,106,13,93.13c-.07-4.5,0-9,0-13.5C12.77,69.5,9.9,66,0,63.94Z"/><path class="cls-1" d="M314,63.94c-9.73,2-12.71,5.63-12.83,15.73-.06,5,.08,10-.12,15a26.21,26.21,0,0,1-18.73,23.92c-1.6.47-3.19.88-3.33-1.36-.12-1.87-3.49-3.93.37-5.74,6.59-3.08,9.15-9,9.78-15.71.45-4.79.39-9.64.37-14.46,0-8.19,1.51-15.61,9.14-20.29,1.86-1.14.84-1.58-.31-2.29-6.29-3.88-8.55-9.87-8.71-16.91-.1-4,0-8-.11-12-.16-8.94-1.42-17.28-10.67-21.92-2.61-1.31-.22-3.44.06-5.18.35-2.14,1.71-1.94,3.37-1.48a26,26,0,0,1,18.78,23.84c.23,5.65-.09,11.32.17,17,.42,9.07,4.7,13.25,12.77,12.88Z"/><path class="cls-2" d="M77.59,77.07c4-9.79,7.66-18.51,11.25-27.24,2.22-5.37,4.53-10.71,6.55-16.16.84-2.25,2-2.91,4.39-3,4.43-.18,8.81-1.34,13.3-.92,1.3.12,2.82-.22,2.83,1.85,0,1.64.41,3.64-2.13,3.62-5.13,0-5,3.22-4.91,7q.22,19.25,0,38.49c0,3.08.36,5.3,4.07,5.19,2.43-.08,3,1.2,3,3.45,0,2.53-1.54,2.49-3.3,2.48-5.33,0-10.67,0-16,0-1.92,0-3.25-.26-3.22-2.62,0-1.89.35-3.4,2.67-3.26,4.48.26,4.89-2.31,4.83-6-.19-12.32-.07-24.65-.07-37-1.69-.07-1.57,1.37-1.95,2.28-5.52,13.18-11,26.38-16.55,39.54-.89,2.12-1,4.85-4.62,4.9s-3.88-2.54-4.82-4.7c-6.08-14-12.11-28-18.79-42.12-.08,1-.22,2-.22,3,0,11.66.18,23.33,0,35,0,3.19.56,5.19,4.16,5.09,2.4-.07,3.65.78,3.58,3.49-.08,3-2.06,2.46-3.82,2.47q-7.49,0-15,0c-1.78,0-3.74.45-3.72-2.55,0-2.3.7-3.42,3.08-3.39,3.24,0,4-1.72,4-4.79q-.23-20.49,0-41c0-2.8-.54-4.47-3.63-4.49a9.79,9.79,0,0,1-1.94-.47c-1.91-.45-1.35-2-1.42-3.24-.13-2.24,1.48-1.06,2.37-1.12,3.94-.25,7.89.42,11.83-.89,2.63-.88,4.41.33,5.6,3.24C64.91,47.4,71,61.59,77.59,77.07Z"/><path class="cls-2" d="M216.1,41.16c0,1.16,0,2.33,0,3.5,0,1.72.15,3.35-2.45,3.26-2.25-.07-4.56.21-4.53-3,0-4.52-1.65-7.74-6.34-8.78-5.71-1.27-11.39-1.59-16,2.83-4.35,4.18-3.27,10.78,2.08,14,3.17,1.92,6.75,2.82,10.27,3.79a39.77,39.77,0,0,1,9.68,3.88c7.44,4.35,10.34,9.91,9.23,17.75-.88,6.26-6.37,12-13.93,13.26-6.84,1.16-13.8,1.26-20.49-1.54-7.78-3.26-7.95-3.26-7.78-11.58,0-2-1.28-4.78,2.84-4.93,3.6-.13,4.41,1.73,4.3,4.51-.16,3.76,2,5.35,5.14,6.31,5,1.54,10.07,2.39,15.16.42,3.86-1.5,6.35-4.15,6.67-8.49S208.31,69,204.6,67a35.47,35.47,0,0,0-8.9-3.15,34.81,34.81,0,0,1-13.24-5.58c-6-4.43-8.15-11.51-5.61-18.16s8.92-10.3,16.19-10.52c4.26-.13,8.46-1.13,12.66.32,1.41.49,2.85.92,4.21,1.53C215.91,34.16,216.1,34.48,216.1,41.16Z"/><path class="cls-2" d="M146,81c3.51-9.52,6.48-17.79,9.61-26,1-2.53.4-3.77-2.31-3.91-1.56-.08-2.4-.61-2.36-2.39,0-2,1.3-1.9,2.67-2,4.93-.38,9.94.86,14.82-.75,1.1-.36,1.56.45,1.46,1.36-.16,1.31.9,3.5-1.35,3.62-3.76.19-4.4,3-5.41,5.57-5,13.18-10.07,26.37-15.18,39.53a61.31,61.31,0,0,1-3.62,7.64c-2.58,4.65-6.6,7-12,6.44-1.52-.15-4.22.87-4.09-2.07.11-2.41-.16-5.63,4.12-5,2.61.36,4.32-1.18,5.64-3.33,3-4.82,4.6-9.35,1.73-15.22-4.58-9.38-8.25-19.22-12.26-28.88-.92-2.19-1.68-4.4-4.63-4.47-2.76-.06-1.87-2.18-2-3.67-.1-2.15,1.56-1.72,2.81-1.73,4.33,0,8.66-.07,13,0,1.29,0,3.24-.84,3.37,1.68.09,1.85.37,3.69-2.43,3.88-1.76.12-3.13.61-2.08,3.17C139.06,62.87,142.25,71.38,146,81Z"/><path class="cls-2" d="M252.07,29.71c7.49,0,15,.08,22.47,0,2.45,0,3.7.5,3.49,3.28s-.08,5.65,0,8.48c0,1.79,0,3.37-2.5,3.28-1.87-.07-3.65.16-4.22-2.36-.46-2.05.58-5.07-1.5-6s-4.9-.35-7.39-.41c-1.16,0-2.33.06-3.49,0-1.82-.12-2.76.43-2.75,2.48q.08,22.22,0,44.43c0,2.78,2,2.84,3.72,2.9,2.57.1,3.44,1.13,3.35,3.67-.12,3-2.22,2.32-3.9,2.34-5,.06-10,0-15,0-1.63,0-3.44.38-3.39-2.31,0-2,0-3.69,2.74-3.62C247,86,248.09,84.35,248,81q-.28-20.47,0-40.94c0-3.28-.88-4.57-4.16-4.08a23.89,23.89,0,0,1-3.49,0c-6.2,0-6.4,0-7.31,5.93-.46,3-2.23,2.71-4.26,2.81-2.39.12-2.55-1.26-2.67-3.15-.7-11.85-.74-11.85,10.94-11.85Z"/></g></g></g></svg>