<?xml version="1.0" encoding="utf-8"?>
<!-- Generator: Adobe Illustrator 24.0.2, SVG Export Plug-In . SVG Version: 6.00 Build 0)  -->
<svg version="1.1" id="Layer_1" xmlns="http://www.w3.org/2000/svg" xmlns:xlink="http://www.w3.org/1999/xlink" x="0px" y="0px"
	 viewBox="0 0 542 671.2" style="enable-background:new 0 0 542 671.2;" xml:space="preserve">
<style type="text/css">
	.st0{fill:#FFFFFF;}
	.st1{fill:#FF0000;}
	.st2{fill:none;}
</style>
<g id="XMLID_2_">
	<path id="XMLID_10_" class="st0" d="M537,66.7C537,27.6,514.4,5,475.4,5C339.6,5,203.7,5,67.8,5C26.6,5,5,26.9,5,68.6
		c0,80.9,0,161.7,0,242.6c0,83.1-0.1,166.2,0,249.3c0.1,35.5,24.7,58.9,59.6,58.3c8.8-0.2,11.2-2.6,11.5-11.4
		c0.4-10.3-4.5-11.3-12.8-12.4c-17.8-2.3-28.5-14.6-29.1-31.6c-0.6-16.2,8.9-29.8,24.9-33.5c8.1-1.9,16.7-2.3,25-2.3
		c133.6-0.1,267.3-0.1,400.9-0.1c34.5,0,51.9-17.2,51.9-51.5C537.1,339.6,537.1,203.1,537,66.7z"/>
	<path id="XMLID_35_" class="st0" d="M176.4,661.1c-16.1-9-30.1-23.1-43.9-22.9c-13.8,0.2-27.4,14.7-43.2,24.1
		c0-34.4,0.2-66.7-0.1-98.9c-0.1-7.8,3.3-9.3,10.1-9.2c22.4,0.3,44.8,0.4,67.1,0c8.6-0.2,10.2,3.6,10.1,11.1
		C176.2,596.7,176.4,628,176.4,661.1z"/>
	<path id="XMLID_12_" class="st0" d="M489,618.2c3.3-0.7,6.4-2.1,9.1-4.5c5.5-4.9,10.9-10.2,15.4-16.2l-321.9,0.9
		c-1.6,2-2,5-2.1,9.1c-0.2,9,2.9,11.3,11.6,11.3c94.2-0.3,188.4-0.1,282.7-0.3C485.5,618.5,487.2,618.4,489,618.2z"/>
</g>
<g id="XMLID_5_">
	<g id="XMLID_1_">
		<path class="st1" d="M465.8,160.2c-30.8,21.1-59.5,33.5-82.7-3.6c-9.4,16.2-18.2,33.1-28.7,48.9c-4.5,6.7-11.1,13-20.8,13
			c-11.1-0.1-17-7.5-21.4-16c-13.9-27.1-10.5-55.5-4.7-83.7c2-9.8,5.1-19.3,8.1-30.2c-11.9,5.1-21.5,4.4-29.8-4.5
			c-17.3-18.6-23.7-41.9-27.2-66.4c-1.1-0.1-2.2-0.3-3.3-0.4c0,9.2,0.3,18.4-0.1,27.6c-1,21.6-9.3,44.4-33.6,47.5
			c-5.7,0.7-11.6-0.8-18.2-1.3c1.8,3.4,3.7,7.5,6,11.2c11.6,18.6,19.5,38.8,21.3,60.7c1,12.4-1.1,25.2-8.2,36.2
			c-9.2,14.4-26,19-42.3,11.4c-15.1-7.1-29.1-15.5-37.6-31.6c-6.4,16.7-20.9,26.6-39.5,25.9c-10.4-0.4-20.8-2.6-31.2-3.9
			c-0.1,1.1-0.3,2.3-0.4,3.4c7,7.7,14.5,15.1,21,23.2c11.8,14.6,20.5,30.1,7.4,49.3c6.2,0.8,11.4,1.6,16.6,2.2
			c22.9,2.5,44.9,8.3,64.8,20.7c13.6,8.5,24.7,19.6,27.3,36.8c2.3,15.3-0.2,30.1-6.2,44.3c-1.8,4.2-3.5,8.5-5.3,13.2
			c1.3-0.3,1.9-0.3,2.3-0.6c12.8-7.7,25.4-15.8,38.5-22.9c15.5-8.4,28-5,36.1,9.5c2.9,5.2,5.1,11.3,6,17.2
			c0.9,5.3,1.7,10.6,2.5,15.9h15.2c-0.2-6.6-0.2-13.1,0-19.6c0.7-21.3,17.7-26.5,33.9-22.3c8.8,2.3,17.1,6.6,25.7,9.8
			c8,3.1,16.1,6,25.9,9.6c-10.4-29.5-10.1-55.8,6.1-80.4c16.7-25.3,41.2-33.1,70.3-31.7C432.1,237.5,446.1,199.7,465.8,160.2z
			 M317.5,295.1c-1,11.4-5.5,19.6-13.6,25.6c-7.7,5.7-16,7.9-24.7,2.9c-8.6-5-11.3-14.5-10.2-23.1c1.6-13.9,8.8-25.2,22.1-30.5
			C306.4,263.9,319.6,277.2,317.5,295.1z"/>
		<path id="XMLID_33_" class="st1" d="M310,302.2c-1.3,10.7-6.6,15.3-16.1,14c-6.9-1-9.9-5.7-8.9-14.1c1.2-10.1,8.4-17.1,16.3-15.9
			C308.5,287.4,311.2,292.3,310,302.2z"/>
	</g>
</g>
<polyline id="XMLID_4_" class="st2" points="524.1,597.6 525.6,595.7 525.6,595.7 518.1,595.7 "/>
<rect x="282.6" y="364.3" class="st1" width="15" height="158"/>
<g>
	<path class="st0" d="M194.1,588.1v-40.4h5.7l13,20.5c3,4.7,5.3,9,7.3,13.1l0.1-0.1c-0.5-5.4-0.6-10.3-0.6-16.6v-16.9h4.9v40.4h-5.3
		l-12.8-20.5c-2.8-4.5-5.5-9.1-7.6-13.5l-0.2,0.1c0.3,5.1,0.4,10,0.4,16.7v17.3H194.1z"/>
	<path class="st0" d="M254.5,569.1h-15.7v14.6h17.5v4.4h-22.7v-40.4h21.8v4.4h-16.6v12.8h15.7V569.1z"/>
	<path class="st0" d="M268.3,547.6v23.9c0,9.1,4,12.9,9.4,12.9c6,0,9.8-4,9.8-12.9v-23.9h5.3v23.6c0,12.4-6.5,17.5-15.3,17.5
		c-8.3,0-14.5-4.7-14.5-17.3v-23.8H268.3z"/>
	<path class="st0" d="M301.9,548.2c2.6-0.5,6.4-0.8,10-0.8c5.6,0,9.2,1,11.7,3.3c2,1.8,3.2,4.6,3.2,7.7c0,5.3-3.4,8.9-7.6,10.3v0.2
		c3.1,1.1,5,4,5.9,8.2c1.3,5.6,2.3,9.5,3.1,11.1h-5.4c-0.7-1.1-1.6-4.6-2.7-9.7c-1.2-5.6-3.4-7.7-8.1-7.9h-4.9v17.5h-5.2V548.2z
		 M307.1,566.6h5.3c5.6,0,9.1-3.1,9.1-7.7c0-5.2-3.8-7.5-9.3-7.6c-2.5,0-4.3,0.2-5.2,0.5V566.6z"/>
	<path class="st0" d="M368.9,567.4c0,13.9-8.5,21.3-18.8,21.3c-10.7,0-18.2-8.3-18.2-20.5c0-12.8,8-21.2,18.8-21.2
		C361.8,547,368.9,555.4,368.9,567.4z M337.6,568.1c0,8.6,4.7,16.4,12.9,16.4c8.3,0,13-7.6,13-16.8c0-8-4.2-16.4-12.9-16.4
		C341.9,551.2,337.6,559.2,337.6,568.1z"/>
	<path class="st0" d="M375.7,547.6h5.2v36.1h17.3v4.4h-22.5V547.6z"/>
	<path class="st0" d="M409.3,547.6v40.4H404v-40.4H409.3z"/>
	<path class="st0" d="M418.4,548.2c2.3-0.5,5.9-0.8,9.5-0.8c5.2,0,8.6,0.9,11.1,2.9c2.1,1.6,3.4,4,3.4,7.1c0,3.9-2.6,7.3-6.8,8.9
		v0.1c3.8,1,8.3,4.1,8.3,10.1c0,3.5-1.4,6.1-3.4,8.1c-2.8,2.6-7.4,3.8-14,3.8c-3.6,0-6.4-0.2-8.1-0.5V548.2z M423.6,564.7h4.7
		c5.5,0,8.8-2.9,8.8-6.8c0-4.7-3.6-6.6-8.9-6.6c-2.4,0-3.8,0.2-4.6,0.4V564.7z M423.6,584.1c1,0.2,2.5,0.2,4.4,0.2
		c5.4,0,10.4-2,10.4-7.9c0-5.5-4.7-7.8-10.4-7.8h-4.3V584.1z"/>
	<path class="st0" d="M450.9,548.2c2.6-0.5,6.4-0.8,10-0.8c5.6,0,9.2,1,11.7,3.3c2,1.8,3.2,4.6,3.2,7.7c0,5.3-3.4,8.9-7.6,10.3v0.2
		c3.1,1.1,5,4,5.9,8.2c1.3,5.6,2.3,9.5,3.1,11.1h-5.4c-0.7-1.1-1.6-4.6-2.7-9.7c-1.2-5.6-3.4-7.7-8.1-7.9h-4.9v17.5h-5.2V548.2z
		 M456.1,566.6h5.3c5.6,0,9.1-3.1,9.1-7.7c0-5.2-3.8-7.5-9.3-7.6c-2.5,0-4.3,0.2-5.2,0.5V566.6z"/>
	<path class="st0" d="M504.1,569.1h-15.7v14.6h17.5v4.4h-22.7v-40.4H505v4.4h-16.6v12.8h15.7V569.1z"/>
</g>
</svg>
