<?xml version="1.0" encoding="utf-8"?>
<!-- Generator: Adobe Illustrator 24.0.2, SVG Export Plug-In . SVG Version: 6.00 Build 0)  -->
<svg version="1.1" id="Layer_1" xmlns="http://www.w3.org/2000/svg" xmlns:xlink="http://www.w3.org/1999/xlink" x="0px" y="0px"
	 viewBox="0 0 2392 540.9" style="enable-background:new 0 0 2392 540.9;" xml:space="preserve">
<style type="text/css">
	.st0{display:none;opacity:0.17;fill:#2E294E;enable-background:new    ;}
	.st1{fill:#FB1D26;}
	.st2{fill:#F16371;}
	.st3{fill:#FF0000;}
	.st4{stroke:#000000;stroke-width:6;stroke-miterlimit:10;}
	.st5{fill:#FF0000;stroke:#000000;stroke-width:6;stroke-miterlimit:10;}
	.st6{fill:#FFFFFF;}
	.st7{fill:none;}
</style>
<path class="st0" d="M1386.9,124.4v-1.5h8.1v1.5h-3.1v8.6h-1.8v-8.6H1386.9z M1398.3,128.5v4.5h-1.8v-10.2h1.8v3.8h0.1
	c0.4-0.9,1.1-1.4,2.3-1.4c1.6,0,2.6,1,2.6,2.9v4.9h-1.9v-4.6c0-1-0.6-1.6-1.5-1.6C1398.9,126.8,1398.3,127.4,1398.3,128.5z
	 M1408.4,133.1c-2.3,0-3.7-1.5-3.7-3.9s1.4-4,3.6-4c1.9,0,3.5,1.2,3.5,3.9v0.6h-5.3c0,1.3,0.8,2.1,1.9,2.1c0.8,0,1.4-0.3,1.6-1
	l1.7,0.2C1411.4,132.3,1410.2,133.1,1408.4,133.1z M1406.5,128.5h3.6c0-1-0.7-1.8-1.7-1.8C1407.3,126.7,1406.6,127.5,1406.5,128.5z
	 M1420.9,122.8h1.8v7.2c0,2-1.3,3.2-3.3,3.2c-1.8,0-3.2-1-3.2-2.8h1.8c0,0.8,0.6,1.3,1.4,1.3c0.9,0,1.4-0.6,1.4-1.6L1420.9,122.8
	L1420.9,122.8z M1428,133.1c-2.2,0-3.7-1.6-3.7-3.9c0-2.4,1.4-3.9,3.7-3.9c2.2,0,3.7,1.6,3.7,3.9
	C1431.6,131.6,1430.2,133.1,1428,133.1z M1428,131.7c1.2,0,1.8-1.1,1.8-2.5s-0.6-2.5-1.8-2.5c-1.2,0-1.8,1.1-1.8,2.5
	S1426.8,131.7,1428,131.7z M1438,129.8v-4.4h1.8v7.6h-1.7v-1.4h-0.1c-0.3,0.9-1.2,1.5-2.3,1.5c-1.5,0-2.5-1-2.5-2.9v-4.9h1.8v4.6
	c0,1,0.6,1.6,1.4,1.6C1437.2,131.5,1438,131,1438,129.8z M1441.7,133v-7.6h1.7v1.3h0.1c0.3-0.9,1-1.4,1.9-1.4c0.2,0,0.5,0,0.6,0v1.7
	c-0.2,0-0.5-0.1-0.8-0.1c-1,0-1.7,0.7-1.7,1.7v4.5L1441.7,133L1441.7,133z M1449,128.5v4.5h-1.8v-7.6h1.7v1.3h0.1
	c0.3-0.9,1.1-1.4,2.3-1.4c1.6,0,2.6,1,2.6,2.9v4.9h-1.8v-4.6c0-1-0.6-1.6-1.5-1.6C1449.7,126.8,1449,127.4,1449,128.5z M1458,133.2
	c-1.5,0-2.6-0.8-2.6-2.3c0-1.7,1.4-2.2,2.9-2.3c1.3-0.1,1.9-0.2,1.9-0.7l0,0c0-0.8-0.5-1.2-1.3-1.2c-0.9,0-1.4,0.4-1.6,1l-1.7-0.2
	c0.4-1.4,1.6-2.1,3.2-2.1c1.5,0,3.1,0.6,3.1,2.6v5.1h-1.7v-1h-0.1C1459.9,132.6,1459.2,133.2,1458,133.2z M1458.4,131.8
	c1.1,0,1.8-0.7,1.8-1.6v-0.9c-0.2,0.2-1.2,0.3-1.7,0.4c-0.8,0.1-1.4,0.4-1.4,1.1C1457.2,131.5,1457.7,131.8,1458.4,131.8z
	 M1465.6,122.8V133h-1.8v-10.2H1465.6z M1474.3,133.1c-2.2,0-3.7-1.6-3.7-3.9c0-2.4,1.4-3.9,3.7-3.9c2.2,0,3.7,1.6,3.7,3.9
	C1477.9,131.6,1476.5,133.1,1474.3,133.1z M1474.3,131.7c1.2,0,1.8-1.1,1.8-2.5s-0.6-2.5-1.8-2.5c-1.2,0-1.8,1.1-1.8,2.5
	S1473,131.7,1474.3,131.7z M1483.4,125.4v1.4h-1.6v6.2h-1.8v-6.2h-1.1v-1.4h1.1v-0.7c0-1.5,1.1-2.3,2.4-2.3c0.6,0,1.1,0.1,1.4,0.2
	l-0.4,1.4c-0.1,0-0.4-0.1-0.7-0.1c-0.7,0-0.9,0.3-0.9,0.9v0.6L1483.4,125.4L1483.4,125.4z M1396.4,145.9c0,3.3-2,5.2-4.7,5.2
	c-2.7,0-4.7-1.9-4.7-5.2s2-5.2,4.7-5.2C1394.4,140.7,1396.4,142.6,1396.4,145.9z M1394.5,145.9c0-2.3-1.2-3.6-2.8-3.6
	c-1.7,0-2.8,1.3-2.8,3.6s1.2,3.6,2.8,3.6C1393.4,149.5,1394.5,148.2,1394.5,145.9z M1398.1,153.9v-10.5h1.8v1.3h0.1
	c0.3-0.6,0.8-1.4,2.2-1.4c1.8,0,3.2,1.4,3.2,3.9s-1.3,3.9-3.1,3.9c-1.3,0-1.9-0.8-2.2-1.3h-0.1v4.1H1398.1z M1399.8,147.2
	c0,1.5,0.6,2.5,1.8,2.5c1.2,0,1.8-1,1.8-2.5c0-1.4-0.6-2.4-1.8-2.4C1400.5,144.7,1399.8,145.7,1399.8,147.2z M1410.2,151.1
	c-2.3,0-3.7-1.5-3.7-3.9s1.4-4,3.6-4c1.9,0,3.5,1.2,3.5,3.9v0.6h-5.3c0,1.3,0.8,2.1,1.9,2.1c0.8,0,1.4-0.3,1.6-1l1.7,0.2
	C1413.2,150.3,1412,151.1,1410.2,151.1z M1408.3,146.5h3.6c0-1-0.7-1.8-1.7-1.8C1409,144.7,1408.3,145.5,1408.3,146.5z
	 M1416.9,146.5v4.5h-1.8v-7.6h1.7v1.3h0.1c0.3-0.9,1.1-1.4,2.3-1.4c1.6,0,2.6,1,2.6,2.9v4.9h-1.8v-4.6c0-1-0.6-1.6-1.5-1.6
	C1417.6,144.8,1416.9,145.4,1416.9,146.5z M1432.7,143.6c-0.1-0.9-0.8-1.4-1.9-1.4c-1.2,0-1.8,0.6-1.8,1.3c0,0.9,0.9,1.2,1.7,1.4
	l1,0.2c1.5,0.4,3,1.2,3,2.9c0,1.8-1.4,3-3.9,3c-2.4,0-3.9-1.1-4-3.2h1.8c0.1,1.1,1,1.6,2.1,1.6c1.2,0,2-0.6,2-1.5
	c0-0.8-0.7-1.1-1.8-1.4l-1.2-0.3c-1.7-0.4-2.7-1.3-2.7-2.7c0-1.8,1.6-3,3.7-3c2.2,0,3.6,1.2,3.7,2.9h-1.7V143.6L1432.7,143.6z
	 M1439.5,151.1c-2.2,0-3.7-1.6-3.7-3.9c0-2.4,1.4-3.9,3.7-3.9c2.2,0,3.7,1.6,3.7,3.9C1443.2,149.6,1441.8,151.1,1439.5,151.1z
	 M1439.5,149.7c1.2,0,1.8-1.1,1.8-2.5s-0.6-2.5-1.8-2.5c-1.2,0-1.8,1.1-1.8,2.5S1438.3,149.7,1439.5,149.7z M1449.6,147.8v-4.4h1.8
	v7.6h-1.7v-1.4h-0.1c-0.3,0.9-1.2,1.5-2.3,1.5c-1.5,0-2.5-1-2.5-2.9v-4.9h1.8v4.6c0,1,0.6,1.6,1.4,1.6
	C1448.8,149.5,1449.6,149,1449.6,147.8z M1453.2,151v-7.6h1.7v1.3h0.1c0.3-0.9,1-1.4,1.9-1.4c0.4,0,0.8,0.1,1,0.3l-0.5,1.4
	c-0.2-0.1-0.4-0.2-0.7-0.2c-0.9,0-1.7,0.7-1.7,1.6v4.5L1453.2,151L1453.2,151z M1462.4,151.1c-2.3,0-3.7-1.6-3.7-3.9
	c0-2.3,1.4-3.9,3.6-3.9c1.9,0,3.2,1.1,3.3,2.7h-1.7c-0.1-0.7-0.7-1.3-1.5-1.3c-1.1,0-1.8,0.9-1.8,2.5s0.7,2.5,1.8,2.5
	c0.8,0,1.4-0.5,1.5-1.3h1.7C1465.5,150,1464.3,151.1,1462.4,151.1z M1470.5,151.1c-2.3,0-3.7-1.5-3.7-3.9s1.4-4,3.6-4
	c1.9,0,3.5,1.2,3.5,3.9v0.6h-5.3c0,1.3,0.8,2.1,1.9,2.1c0.8,0,1.4-0.3,1.6-1l1.7,0.2C1473.5,150.3,1472.3,151.1,1470.5,151.1z
	 M1468.6,146.5h3.6c0-1-0.7-1.8-1.7-1.8C1469.3,144.7,1468.6,145.5,1468.6,146.5z M1484.5,143.6c-0.1-0.9-0.8-1.4-1.9-1.4
	c-1.2,0-1.8,0.6-1.8,1.3c0,0.9,0.9,1.2,1.7,1.4l1,0.2c1.5,0.4,3,1.2,3,2.9c0,1.8-1.4,3-3.9,3c-2.4,0-3.9-1.1-4-3.2h1.8
	c0.1,1.1,1,1.6,2.1,1.6c1.2,0,2-0.6,2-1.5c0-0.8-0.7-1.1-1.8-1.4l-1.2-0.3c-1.7-0.4-2.7-1.3-2.7-2.7c0-1.8,1.6-3,3.7-3
	c2.2,0,3.6,1.2,3.7,2.9h-1.7L1484.5,143.6L1484.5,143.6z M1491.3,151.1c-2.2,0-3.7-1.6-3.7-3.9c0-2.4,1.4-3.9,3.7-3.9
	c2.2,0,3.7,1.6,3.7,3.9C1495,149.6,1493.5,151.1,1491.3,151.1z M1491.3,149.7c1.2,0,1.8-1.1,1.8-2.5s-0.6-2.5-1.8-2.5
	c-1.2,0-1.8,1.1-1.8,2.5S1490.1,149.7,1491.3,149.7z M1500.4,143.4v1.4h-1.6v6.2h-1.8v-6.2h-1.1v-1.4h1.1v-0.7
	c0-1.5,1.1-2.3,2.4-2.3c0.6,0,1.1,0.1,1.4,0.2l-0.4,1.4c-0.1,0-0.4-0.1-0.7-0.1c-0.7,0-0.9,0.3-0.9,0.9v0.6L1500.4,143.4
	L1500.4,143.4z M1505.6,143.4v1.4h-1.5v3.9c0,0.7,0.4,0.9,0.8,0.9c0.2,0,0.4,0,0.5-0.1l0.3,1.4c-0.2,0.1-0.5,0.2-1.1,0.2
	c-1.4,0-2.4-0.7-2.4-2.1v-4.2h-1.1v-1.4h1.1v-1.8h1.8v1.8L1505.6,143.4L1505.6,143.4z M1508.7,151l-2.2-7.6h1.8l1.3,5.4h0.1l1.4-5.4
	h1.8l1.4,5.3h0.1l1.3-5.3h1.8l-2.2,7.6h-1.9l-1.4-5.2h-0.1l-1.4,5.2H1508.7z M1521.1,151.2c-1.5,0-2.6-0.8-2.6-2.3
	c0-1.7,1.4-2.2,2.9-2.3c1.3-0.1,1.9-0.2,1.9-0.7l0,0c0-0.8-0.5-1.2-1.3-1.2c-0.9,0-1.4,0.4-1.6,1l-1.7-0.2c0.4-1.4,1.6-2.1,3.2-2.1
	c1.5,0,3.1,0.6,3.1,2.6v5.1h-1.7v-1h-0.1C1523,150.6,1522.3,151.2,1521.1,151.2z M1521.5,149.8c1.1,0,1.8-0.7,1.8-1.6v-0.9
	c-0.2,0.2-1.2,0.3-1.7,0.4c-0.8,0.1-1.4,0.4-1.4,1.1C1520.2,149.5,1520.8,149.8,1521.5,149.8z M1526.9,151v-7.6h1.7v1.3h0.1
	c0.3-0.9,1-1.4,1.9-1.4c0.4,0,0.8,0.1,1,0.3l-0.6,1.5c-0.2-0.1-0.4-0.2-0.7-0.2c-0.9,0-1.7,0.7-1.7,1.6v4.5L1526.9,151L1526.9,151z
	 M1536.1,151.1c-2.3,0-3.7-1.5-3.7-3.9s1.4-4,3.6-4c1.9,0,3.5,1.2,3.5,3.9v0.6h-5.3c0,1.3,0.8,2.1,1.9,2.1c0.8,0,1.4-0.3,1.6-1
	l1.7,0.2C1539.1,150.3,1537.9,151.1,1536.1,151.1z M1534.2,146.5h3.6c0-1-0.7-1.8-1.7-1.8C1534.9,144.7,1534.2,145.5,1534.2,146.5z"
	/>
<g>
	<path class="st1" d="M1744.4,49.8c0.1-2.3,0.2-5.9,0.6-9.5c1.1-11.5,1.3-12.1,10.2-9.6c31.9,9.1,41.4,34.6,36,68.8
		c-0.8,5.1-4.8,5.4-8,5.9c-13.2,2.1-29.5-10.5-35-26.9C1745.3,69.7,1744.6,60.5,1744.4,49.8z"/>
	<path class="st2" d="M1794,98.3c2.1-12.3,3.3-23.7,1.3-35.4c-1.7-9.7-5.4-17.9-12.2-23.5c-2.7-2.2-3.4-4.1-1.2-7.3
		c4.5-6.5,9.2-12.7,15.1-17.5c2.1-1.7,3.6-1.6,5.5,0.6C1821,36.1,1816.8,82,1794,98.3z"/>
	<g>
		<path class="st3" d="M482.4,26H530l107.9,182l32.2,59.9h1.8c-1.9-29.2-4.8-61.8-4.8-92.1V26h36v287.9H662L549,131.7l-33.7-59.8
			h-1.9c2,29.3,5.1,60.2,5.1,90.4v151.5h-36.1V26z"/>
		<path class="st3" d="M740.9,209.6c0-69.3,50.4-112,103.3-112c58.6,0,91.7,39,91.7,99.9c0,7.6-0.7,15.2-1.8,20.5H779.4
			c2.8,45.1,32.6,74.4,76.4,74.4c22.1,0,40.2-6.6,57.2-17l13.9,23.6c-20.2,12.2-44.6,22.1-75.9,22.1
			C789.7,321,740.9,279.5,740.9,209.6z M901.6,192.9c0-42.7-20.7-65.9-56.7-65.9c-32.3,0-61.2,24-65.9,65.9H901.6z"/>
		<path class="st3" d="M962,235.8V101.1h40.5v130.3c0,39.7,12.8,56.6,42.8,56.6c23.2,0,39.3-10.8,60.8-35.9v-151h40.5v212.8h-32.5
			l-3.3-33.4h-1.3c-21.5,23.3-44.7,38.6-76.6,38.6C984,319.2,962,290.2,962,235.8z"/>
		<g>
			<path class="st3" d="M1196.6,100.3c11.3,0.1,22.6,0.2,34,0.4c0.9,12.6,1.6,25.1,2.5,37.7c0.5,0,0.8,0,1.4,0
				c13.9-22.9,34.8-41.2,61.9-42.3c10.7-0.4,15.1,1.3,24.4,4c-2.4,10.2-4.9,20.4-6.9,30.6c-10-1.6-10.6-3.7-22.6-3.2
				c-25.3,1.1-44.9,23.9-54.8,47.1c-0.6,46.4-0.6,92.8-0.9,139.2c-13.5-0.1-27-0.1-40.5-0.2c0.4-71.1,1-142.2,1.8-213.4
				C1196.7,100.3,1196.7,100.3,1196.6,100.3z"/>
		</g>
		<path class="st3" d="M1312.9,208.7c0-71.1,50.2-112,106.5-112c56.3,0,106.5,40.9,106.5,112c0,70.5-50.2,111.4-106.5,111.4
			C1363.1,320.1,1312.9,279.2,1312.9,208.7z M1485.8,208.7c0-48.8-26.8-82-66.3-82s-66.3,33.2-66.3,82s26.8,81.4,66.3,81.4
			S1485.8,257.5,1485.8,208.7z"/>
		<path class="st3" d="M1557.5,30.2h40.5v254.5h135.1v29.2h-175.7L1557.5,30.2L1557.5,30.2z"/>
		<path class="st3" d="M1759,137.5h40.5v176.4H1759V137.5z"/>
		<path class="st3" d="M1885.4,293h-4.6l-3.4,20.9h-29.5V1h40.5v85.9l-1.3,38.4c21.9-16.9,48.6-29.9,75.3-29.9
			c61.9,0,95.2,43,95.2,109.1c0,73.2-49,115.9-103.8,115.9C1931.4,320.5,1906.6,310.2,1885.4,293z M2010.5,205.5
			c0-47-17.3-78.5-60.6-78.5c-19.5,0-39.7,9.9-61.5,29.1v111.6c20.2,16.2,40.8,22.1,56,22.1C1982.4,289.8,2010.5,258.1,2010.5,205.5
			z"/>
		<path class="st3" d="M2080.9,101.1h34l3.2,37.5h1.3c15.5-26.2,38.2-42.6,63.3-42.6c9.9,0,16.8,1.2,23.8,4.2l-7,30.6
			c-7.7-2.2-12.7-3.4-21.6-3.4c-18.8,0-41.3,12.5-56.3,47.4v139h-40.5V101.1H2080.9z"/>
		<path class="st3" d="M2197,209.6c0-69.3,50.4-112,103.3-112c58.6,0,91.7,39,91.7,99.9c0,7.6-0.7,15.2-1.8,20.5h-154.8
			c2.8,45.1,32.6,74.4,76.4,74.4c22.1,0,40.2-6.6,57.2-17l13.9,23.6c-20.2,12.2-44.6,22.1-75.9,22.1
			C2245.8,321,2197,279.5,2197,209.6z M2357.7,192.9c0-42.7-20.7-65.9-56.7-65.9c-32.3,0-61.2,24-65.9,65.9H2357.7z"/>
	</g>
</g>
<g>
	<path class="st4" d="M488.2,355.8H523c24.1,0,40,8.8,40,32.1c0,22.2-15.9,33.7-40,33.7h-26V477h-8.8V355.8z M520.8,414.2
		c21.3,0,33.2-8.5,33.2-26.3c0-18.1-11.8-24.7-33.2-24.7H497v51H520.8z M521,419l8.3-2.7l36.1,60.7h-10.2L521,419z"/>
	<path class="st4" d="M588,433c0-28.8,18.8-46.6,38.6-46.6c21,0,33.9,15,33.9,40.9c0,2.3-0.1,4.5-0.5,6.7h-63.4
		C597,456.2,610,472,629.8,472c9.5,0,17-3.1,23.7-7.8l3.5,6.4c-7,4.4-15,8.7-27.9,8.7C606.3,479.2,588,461.9,588,433z M652.6,427.2
		c0-22.3-10.1-33.5-25.9-33.5c-14.8,0-28.2,12.5-30.1,33.5H652.6z"/>
	<path class="st4" d="M694,388.6h7.2l0.9,11.1h0.4c8.6-6.9,19.1-13.3,29.9-13.3c23.7,0,35.4,17.7,35.4,45.1
		c0,30-18.1,47.7-38.9,47.7c-8.4,0-17.3-4-26.5-10.8l0.1,16.3v32.2H694V388.6z M758.9,431.5c0-21.6-7.7-37.7-27.9-37.7
		c-8.7,0-17.9,5.1-28.5,14.5v52.1c9.9,8.2,19.1,11.3,25.8,11.3C746.1,471.7,758.9,455.4,758.9,431.5z"/>
	<path class="st4" d="M804.1,388.6h7.2l0.9,16.5h0.4c6-10.9,14.7-18.7,25.1-18.7c3.3,0,5.9,0.4,8.8,1.8l-1.9,7.7
		c-3-1.1-4.6-1.5-8-1.5c-7.9,0-17.3,6-24,22.6v60h-8.5V388.6z"/>
	<path class="st4" d="M863.3,433c0-29.6,18.5-46.6,39.8-46.6s39.8,17,39.8,46.6c0,29.2-18.5,46.3-39.8,46.3S863.3,462.2,863.3,433z
		 M933.9,433c0-23.1-13.1-39.1-30.9-39.1s-30.9,16-30.9,39.1s13.1,38.8,30.9,38.8S933.9,456.1,933.9,433z"/>
	<path class="st4" d="M971.6,433c0-28.5,18.1-46.6,39.2-46.6c10.6,0,17.8,4,26.6,10.8l-0.5-16.2v-36.3h8.5V477h-7.2l-0.9-11.4h-0.4
		c-7.2,7.2-17,13.6-28.7,13.6C986,479.2,971.6,462.8,971.6,433z M1036.8,457.3v-52.1c-9.2-8.2-16.9-11.3-25.6-11.3
		c-17.4,0-30.8,17-30.8,39c0,23.4,10.4,38.8,29,38.8C1019.1,471.7,1027.7,466.7,1036.8,457.3z"/>
	<path class="st4" d="M1087.5,445.3v-56.7h8.5v55.6c0,18.6,5.9,27.4,20,27.4c10.5,0,18-5.5,28.3-17.9v-65.1h8.5V477h-7.2l-0.9-14.8
		h-0.4c-8.7,10.1-17.8,17-30,17C1096,479.2,1087.5,468.1,1087.5,445.3z"/>
	<path class="st4" d="M1188.8,433c0-29.6,18.9-46.6,40.5-46.6c12,0,19.9,5.3,25.9,10.9l-4.9,5.9c-5.7-5.3-12.2-9.3-20.7-9.3
		c-18,0-31.8,16-31.8,39.1s12.6,38.8,31.7,38.8c9.4,0,17.5-4.5,23.5-10.1l4.3,5.9c-7.6,6.8-17.1,11.7-28.3,11.7
		C1206.1,479.2,1188.8,462.2,1188.8,433z"/>
	<path class="st4" d="M1285.4,360.1c0-4.6,3.4-7.3,7.5-7.3c4.1,0,7.5,2.7,7.5,7.3c0,4.3-3.4,7.3-7.5,7.3
		C1288.8,367.4,1285.4,364.4,1285.4,360.1z M1288.5,388.6h8.5V477h-8.5V388.6z"/>
	<path class="st4" d="M1348.8,468.1h-0.4l-0.9,9h-7V344.7h8.5V383l-0.4,17.2c8.9-7.5,19.6-13.8,30.3-13.8
		c23.7,0,35.4,17.7,35.4,45.1c0,30-18.1,47.7-38.9,47.7C1366.8,479.2,1357.1,474.9,1348.8,468.1z M1405.3,431.5
		c0-21.6-7.7-37.7-27.9-37.7c-8.7,0-18.3,5.1-28.5,14.5v52.1c9.6,8.2,19.1,11.3,25.8,11.3C1392.5,471.7,1405.3,455.4,1405.3,431.5z"
		/>
	<path class="st4" d="M1449.9,464.9V344.7h8.5V466c0,4,1.6,5.8,3.8,5.8c0.8,0,1.5,0,3.3-0.4l1.4,6.9c-1.7,0.5-3.2,0.9-6,0.9
		C1453.6,479.2,1449.9,474.7,1449.9,464.9z"/>
	<path class="st4" d="M1496.1,433c0-28.8,18.8-46.6,38.6-46.6c21,0,33.9,15,33.9,40.9c0,2.3-0.1,4.5-0.5,6.7h-63.4
		c0.3,22.1,13.3,37.9,33.1,37.9c9.5,0,17-3.1,23.7-7.8l3.5,6.4c-7,4.4-15,8.7-27.9,8.7C1514.4,479.2,1496.1,461.9,1496.1,433z
		 M1560.6,427.2c0-22.3-10.1-33.5-25.9-33.5c-14.8,0-28.2,12.5-30.1,33.5H1560.6z"/>
	<path class="st4" d="M1649.6,355.8h30.7c27.4,0,44,8.9,44,33.9c0,23.9-16.3,35.4-43.3,35.4h-22.7V477h-8.8V355.8z M1678.9,417.7
		c24.6,0,36.3-8.2,36.3-28c0-20.1-12.2-26.5-37.1-26.5h-19.8v54.5H1678.9z"/>
	<path class="st4" d="M1759.4,388.6h7.2l0.9,16.5h0.4c6-10.9,14.7-18.7,25.2-18.7c3.3,0,5.9,0.4,8.8,1.8l-1.9,7.7
		c-3-1.1-4.6-1.5-8-1.5c-7.9,0-17.3,6-24,22.6v60h-8.5V388.6z"/>
	<path class="st4" d="M1818.6,433c0-28.8,18.8-46.6,38.6-46.6c21,0,33.9,15,33.9,40.9c0,2.3-0.1,4.5-0.5,6.7h-63.4
		c0.3,22.1,13.3,37.9,33.1,37.9c9.5,0,17-3.1,23.7-7.8l3.5,6.4c-7,4.4-15,8.7-27.9,8.7C1836.9,479.2,1818.6,461.9,1818.6,433z
		 M1883.2,427.2c0-22.3-10.1-33.5-25.9-33.5c-14.8,0-28.2,12.5-30.1,33.5H1883.2z"/>
	<path class="st4" d="M1924.6,388.6h7.2l0.9,11.1h0.4c8.6-6.9,19.1-13.3,29.9-13.3c23.7,0,35.4,17.7,35.4,45.1
		c0,30-18.1,47.7-38.9,47.7c-8.4,0-17.3-4-26.5-10.8l0.1,16.3v32.2h-8.5V388.6z M1989.5,431.5c0-21.6-7.7-37.7-27.9-37.7
		c-8.7,0-17.9,5.1-28.5,14.5v52.1c9.9,8.2,19.1,11.3,25.8,11.3C1976.7,471.7,1989.5,455.4,1989.5,431.5z"/>
	<path class="st4" d="M2034.6,388.6h7.2l0.9,16.5h0.4c6-10.9,14.7-18.7,25.2-18.7c3.3,0,5.9,0.4,8.8,1.8l-1.9,7.7
		c-3-1.1-4.6-1.5-8-1.5c-7.9,0-17.3,6-24,22.6v60h-8.5V388.6z"/>
	<path class="st4" d="M2099.9,360.1c0-4.6,3.4-7.3,7.5-7.3c4.1,0,7.5,2.7,7.5,7.3c0,4.3-3.4,7.3-7.5,7.3
		C2103.4,367.4,2099.9,364.4,2099.9,360.1z M2103.1,388.6h8.5V477h-8.5V388.6z"/>
	<path class="st4" d="M2155,388.6h7.2l0.9,13.7h0.4c9-9,18.2-15.9,30.4-15.9c18.3,0,26.7,11.1,26.7,33.9V477h-8.5v-55.6
		c0-18.6-5.9-27.4-20-27.4c-10.5,0-18,5.5-28.7,16.5V477h-8.5V388.6z"/>
	<path class="st4" d="M2264.7,452.5V396h-13.8v-6.6l14-0.8l1.1-25.6h7.2v25.6h25.5v7.4h-25.5v57.1c0,11.3,2.9,18.8,15,18.8
		c3.3,0,7.8-1.4,11-2.8l2.2,6.8c-5.1,1.8-10.8,3.3-14.5,3.3C2269.8,479.2,2264.7,468.4,2264.7,452.5z"/>
	<path class="st4" d="M2317.2,467l4.8-6.1c7.5,6.3,15.5,11.2,28,11.2c13.8,0,20.9-8,20.9-17.3c0-11-11.4-15.8-21.6-19.5
		c-13.3-4.7-28.1-10.2-28.1-25.3c0-12.8,10.2-23.6,28.6-23.6c9.5,0,18.9,4,25.4,9.2l-4.5,6c-6-4.5-12.2-8.1-21.1-8.1
		c-13.7,0-19.8,7.8-19.8,15.9c0,10,10.4,13.8,20.9,17.8c13.7,5.2,28.8,9.7,28.8,26.9c0,13.4-10.7,25-29.9,25
		C2336.5,479.2,2325.1,473.8,2317.2,467z"/>
</g>
<g id="XMLID_2_">
	<path id="XMLID_10_" class="st5" d="M434.6,55.5c0-31.2-18.1-49.3-49.3-49.3c-108.7,0-217.4,0-326.1,0C26.3,6.2,9,23.6,9,57
		c0,64.7,0,129.4,0,194.1c0,66.5-0.1,133,0,199.5c0,28.4,19.8,47.1,47.7,46.6c7.1-0.1,8.9-2.1,9.2-9.1c0.3-8.2-3.6-9.1-10.2-9.9
		c-14.3-1.9-22.8-11.7-23.3-25.3c-0.5-13,7.1-23.8,19.9-26.8c6.5-1.5,13.3-1.8,20-1.9c106.9-0.1,213.8-0.1,320.7-0.1
		c27.6,0,41.5-13.8,41.5-41.2C434.6,273.8,434.6,164.7,434.6,55.5z"/>
	<path id="XMLID_35_" class="st4" d="M146.1,531c-12.8-7.2-24.1-18.5-35.1-18.3c-11,0.2-21.9,11.7-34.5,19.3
		c0-27.6,0.2-53.3-0.1-79.1c-0.1-6.2,2.6-7.5,8.1-7.4c17.9,0.2,35.8,0.3,53.7,0c6.8-0.1,8.1,2.9,8.1,8.9
		C146,479.5,146.1,504.5,146.1,531z"/>
	<path id="XMLID_12_" class="st5" d="M396.2,496.7c2.6-0.6,5.1-1.7,7.3-3.6c4.4-3.9,8.8-8.2,12.3-12.9l-257.5,0.7
		c-1.3,1.6-1.6,4-1.7,7.2c-0.2,7.2,2.3,9.1,9.3,9c75.4-0.2,150.8-0.1,226.1-0.2C393.4,496.9,394.8,496.8,396.2,496.7z"/>
</g>
<g id="XMLID_5_">
	<g id="XMLID_1_">
		<path id="XMLID_42_" class="st6" d="M233.5,404.4c0.3-1.4,0.7-2.8,0.9-4.3c0.4-2.9,1.1-5.9,0.8-8.8c-0.6-5.3,1.6-9.3,5.3-13.9
			c-7.3,1.1-14.5,0.1-18,7.6c-3.6-1.3-2.1-3.5-1-4.9c3.1-3.9,7-6.7,12.2-7.5c1.9-0.3,4-0.1,5.6-1c1.7-0.9,3.8-2.6,4.2-4.2
			c1.5-7.8,2.4-15.8,3.5-23.7c3.1-22.8,2.7-45.8,2.4-68.7c-0.2-15.8-1.6-31.5-5.8-46.8c-3-10.7-6-21.4-9.2-32.1
			c-0.8-2.8-2.3-5.5-4-7.8c-4.9-6.4-11.4-7.2-18.6-2.3c-6.1,4.2-12,8.8-18,13.3c-0.2,0.2-0.5,0.2-1.1,0.4c0.7-2.3,1.2-4.5,1.9-6.6
			c2.2-7.1,2.5-14.2,0.5-21.4c-2.3-8-8.5-12.5-15.8-15.7c-10.7-4.7-22-6-33.7-5.8c-2.6,0.1-5.3,0-8.4,0c5.4-9.9,0.1-16.7-6.6-22.9
			c-3.8-3.4-7.9-6.5-11.9-9.7c0-0.5,0-1.1,0-1.6c5.3,0,10.6,0.4,15.9-0.1c9.3-0.8,16-6.4,18.2-14.8c5.2,7.1,12.7,10.2,20.7,12.6
			c8.6,2.6,16.7-0.7,20.5-8.1c2.9-5.7,3.2-11.9,2-17.7c-2.2-10.3-7.4-19.3-14.3-27.4c-1.4-1.6-2.5-3.4-3.7-4.9
			c3.4-0.2,6.4,0.2,9.2-0.5c12-3,14.8-14.3,14-24.6c-0.3-4.4-1-8.7-1.6-13.1c0.6,0,1.1,0,1.7,0c3.2,11.4,7.8,22.1,17.6,29.8
			c4.7,3.7,9.5,3.4,15.2,0.2c-0.8,5.3-1.8,10-2.3,14.8c-1.2,13.8-1.3,27.4,7.3,39.4c2.7,3.7,6.1,6.9,11.6,6.2c4.9-0.6,7.8-4,9.7-7.5
			c4.3-8.1,7.8-16.7,11.5-25c13.8,16.1,27.4,8.4,41.6-3.5c-7.5,20-12.3,38.8,4,56.6c-14.7,1.2-26.5,6.4-33.3,19.4
			c-6.7,12.7-5.2,25.2,1.7,38.5c-5.1-1.1-9.3-2-13.6-2.9c-4.5-1-8.9-2.5-13.5-3.1c-8.4-1-16.5,2.6-15.6,12.7
			c0.8,8.4,2.3,17,5.2,24.9c4.2,11.5,6.6,23.1,7.1,35.2c0.7,15.5,1.8,31,1.5,46.5c-0.2,14.2-2,28.3-3.1,42.5
			c-0.6,7.5-1.2,15-1.7,22.5c-0.1,2.2-0.9,4.9,0.1,6.3c1,1.3,4.3,0.7,6,1.8c4.4,2.7,8.6,5.9,12.8,8.8c-0.3,0.6-0.7,1.3-1,1.9
			c-5.3-0.2-8.9-5.7-14-5.5c1.5,6.1,3,12.3,4.5,18.6c-3.6-0.2-6.3-2.4-6.7-6.3c-0.5-4.8-1.8-8.8-6.8-11.1c-2.9,3.5-7.6,6.3-6.6,12.2
			c0.2,1.4,0.6,3,0.2,4.1c-1.2,3-2.9,5.9-4.4,8.8C235.1,404.4,234.3,404.4,233.5,404.4z M246.8,145.3c0-8.6-7.4-14.1-14.7-10.2
			c-6.4,3.3-9.3,9.2-9.3,15.8c0,4.2,1.9,8.5,6.5,10.3c4.6,1.8,8.7,0.3,12.2-2.9C245.3,155,247,150.8,246.8,145.3z"/>
		<path id="XMLID_33_" class="st6" d="M243.5,149.2c0,5.2-2.4,7.7-7.2,7.6c-3.5,0-5.3-2.1-5.3-6.1c0-4.8,3.2-8.6,7.2-8.5
			C241.9,142.3,243.5,144.4,243.5,149.2z"/>
	</g>
</g>
<polyline id="XMLID_4_" class="st7" points="424.2,480.3 425.5,478.7 425.5,478.7 419.5,478.7 "/>
</svg>
