<?xml version="1.0" encoding="utf-8"?>
<!-- Generator: Adobe Illustrator 24.0.2, SVG Export Plug-In . SVG Version: 6.00 Build 0)  -->
<svg version="1.1" id="Layer_1" xmlns="http://www.w3.org/2000/svg" xmlns:xlink="http://www.w3.org/1999/xlink" x="0px" y="0px"
	 viewBox="0 0 218.9 235.4" style="enable-background:new 0 0 218.9 235.4;" xml:space="preserve">
<style type="text/css">
	.st0{fill:#0C0304;}
	.st1{fill:#F40018;}
	.st2{fill:#F83048;}
	.st3{fill:#FA6274;}
	.st4{fill:#F70623;}
	.st5{fill:#F9495E;}
	.st6{fill:#FCF4FB;}
	.st7{fill:#F20808;}
	.st8{fill:#CDCFD1;}
	.st9{fill:#FFFFFF;}
</style>
<image style="overflow:visible;enable-background:new    ;" width="2259" height="2797" id="XMLID_2_" xlink:href="517EC576A1D28195.png"  transform="matrix(4.730000e-02 0 0 5.270000e-02 56.3438 82.9896)">
</image>
<rect id="XMLID_30_" x="93.2" y="72.3" class="st0" width="32.8" height="12.7"/>
<g id="XMLID_5_">
	<path id="XMLID_29_" class="st1" d="M158.2,74.5H61.3c-3.9,0-7.1-3.2-7.1-7.1V29.8c0-3.9,3.2-7.1,7.1-7.1h96.8
		c3.9,0,7.1,3.2,7.1,7.1v37.5C165.2,71.3,162.1,74.5,158.2,74.5z"/>
	<path id="XMLID_28_" class="st2" d="M150.4,68.5H69.1c-3.9,0-7.1-3.2-7.1-7.1V35.8c0-3.9,3.2-7.1,7.1-7.1h81.3
		c3.9,0,7.1,3.2,7.1,7.1v25.7C157.5,65.4,154.3,68.5,150.4,68.5z"/>
	<g id="XMLID_21_">
		<g id="XMLID_25_">
			<path id="XMLID_27_" class="st3" d="M70.7,34.7c0,0.9-0.8,1.6-1.8,1.6s-1.8-0.7-1.8-1.6s0.8-1.6,1.8-1.6
				C69.9,33,70.7,33.8,70.7,34.7z"/>
			<path id="XMLID_26_" class="st3" d="M70.7,63.5c0,0.9-0.8,1.6-1.8,1.6s-1.8-0.7-1.8-1.6c0-0.9,0.8-1.6,1.8-1.6
				C69.9,61.8,70.7,62.5,70.7,63.5z"/>
		</g>
		<g id="XMLID_22_">
			<path id="XMLID_24_" class="st3" d="M152.4,34.7c0,0.9-0.8,1.6-1.8,1.6s-1.8-0.7-1.8-1.6s0.8-1.6,1.8-1.6S152.4,33.8,152.4,34.7z
				"/>
			<path id="XMLID_23_" class="st3" d="M152.4,63.5c0,0.9-0.8,1.6-1.8,1.6s-1.8-0.7-1.8-1.6c0-0.9,0.8-1.6,1.8-1.6
				S152.4,62.5,152.4,63.5z"/>
		</g>
	</g>
	<g id="XMLID_6_">
		<g id="XMLID_14_">
			<ellipse id="XMLID_20_" class="st4" cx="91.7" cy="50.6" rx="17" ry="15.2"/>
			<ellipse id="XMLID_19_" class="st3" cx="89.2" cy="47.9" rx="17" ry="15.2"/>
			<ellipse id="XMLID_18_" class="st5" cx="89.2" cy="47.9" rx="12.1" ry="10.9"/>
			<ellipse id="XMLID_17_" class="st4" cx="89.2" cy="47.9" rx="11" ry="9.9"/>
			<ellipse id="XMLID_16_" class="st6" cx="89.2" cy="47.9" rx="9" ry="8"/>
			<path id="XMLID_15_" class="st2" d="M94.8,47.9c0,2.8-2.5,5-5.6,5s-5.6-2.2-5.6-5s2.5-5,5.6-5C92.3,42.9,94.8,45.1,94.8,47.9z"/>
		</g>
		<g id="XMLID_7_">
			<ellipse id="XMLID_13_" class="st4" cx="130.3" cy="50.6" rx="17" ry="15.2"/>
			<ellipse id="XMLID_12_" class="st3" cx="127.8" cy="47.9" rx="17" ry="15.2"/>
			<ellipse id="XMLID_11_" class="st5" cx="127.8" cy="47.9" rx="12.1" ry="10.9"/>
			<ellipse id="XMLID_10_" class="st4" cx="127.8" cy="47.9" rx="11" ry="9.9"/>
			<ellipse id="XMLID_9_" class="st6" cx="127.8" cy="47.9" rx="9" ry="8"/>
			<path id="XMLID_8_" class="st2" d="M133.4,47.9c0,2.8-2.5,5-5.6,5s-5.6-2.2-5.6-5s2.5-5,5.6-5S133.4,45.1,133.4,47.9z"/>
		</g>
	</g>
</g>
<g id="XMLID_31_">
	<path id="XMLID_41_" d="M203.8,77.4l-3.4,3.7c0,0,5.6,2.4,2.1,8.4c0,0-1.6,3.8-5.8,1.8c-4.6-0.5-4.1-4.6-4.1-4.6c0-7.1,6-6.1,6-6.1
		l-1-5c0,0-8.9-0.9-9.6,7.7s4.9,11.4,4.9,11.4l3-0.1l2.4,1.6c0,0,6.2,0.6,9.8-7.1C211.9,81.5,203.8,77.4,203.8,77.4z"/>
	<polygon id="XMLID_40_" class="st2" points="189,96.6 190,91.2 203.2,95.5 202,102.2 	"/>
	<path id="XMLID_39_" class="st7" d="M166.6,125.6c0,0,21-2.7,22.7-25.2l11.6,3.3c0,0-2.7,43.2-36.1,44.2L166.6,125.6z"/>
	<polygon id="XMLID_38_" points="169.7,152.1 161.4,152.2 161,120.1 169.3,120 	"/>
	<polygon id="XMLID_37_" points="185.1,101.1 203.7,107.5 205,100.2 187,93.3 	"/>
	<g id="XMLID_32_">
		<path id="XMLID_36_" d="M174.3,146.3c0.5-0.2,1.1-0.4,1.6-0.6l-1-22.9c-0.6,0.3-1.1,0.6-1.7,0.8L174.3,146.3z"/>
		<path id="XMLID_35_" d="M179.7,119.7c-0.5,0.4-1,0.8-1.5,1.1l4.7,21c0.5-0.4,1-0.7,1.4-1.1L179.7,119.7z"/>
		<path id="XMLID_34_" d="M188.1,106.8c-0.2,0.7-0.4,1.3-0.6,1.9l10.3,10.2c0.2-0.6,0.4-1.2,0.6-1.8L188.1,106.8z"/>
		<path id="XMLID_33_" d="M191,133.2c0.4-0.6,0.7-1.1,1.1-1.7l-7.4-17.4c-0.4,0.6-0.8,1.1-1.2,1.6L191,133.2z"/>
	</g>
</g>
<g id="XMLID_1_">
	<path id="XMLID_51_" d="M16,77.7l3.4,3.7c0,0-5.5,2.4-2,8.5c0,0,1.6,3.8,5.8,1.7c4.5-0.5,4.1-4.6,4.1-4.6c0-7.1-6-6.1-6-6.1l1-5
		c0,0,8.9-0.9,9.6,7.7c0.7,8.6-4.9,11.4-4.9,11.4l-3-0.1l-2.4,1.6c0,0-6.1,0.7-9.8-7.1C8,81.8,16,77.7,16,77.7z"/>
	<polygon id="XMLID_50_" class="st2" points="30.9,96.8 29.8,91.4 16.7,95.9 17.9,102.6 	"/>
	<path id="XMLID_49_" class="st7" d="M53.3,125.9c0,0-20.9-2.6-22.7-25.1l-11.6,3.3c0,0,2.9,43.3,36.1,44.1L53.3,125.9z"/>
	
		<rect id="XMLID_48_" x="38.5" y="132.2" transform="matrix(8.539125e-03 -1 1 8.539125e-03 -82.1347 189.777)" width="32.2" height="8.3"/>
	<polygon id="XMLID_47_" points="34.8,101.3 16.2,107.9 14.9,100.6 32.9,93.6 	"/>
	<g id="XMLID_42_">
		<path id="XMLID_46_" d="M45.7,146.6c-0.5-0.2-1.1-0.3-1.6-0.5l0.9-23c0.6,0.3,1.1,0.6,1.7,0.8L45.7,146.6z"/>
		<path id="XMLID_45_" d="M40.2,120c0.5,0.4,1,0.8,1.5,1.1l-4.6,21.1c-0.5-0.4-1-0.7-1.4-1.1L40.2,120z"/>
		<path id="XMLID_44_" d="M31.8,107.1c0.2,0.7,0.4,1.3,0.6,1.9l-10.2,10.3c-0.2-0.6-0.4-1.2-0.6-1.8L31.8,107.1z"/>
		<path id="XMLID_43_" d="M29,133.6c-0.4-0.6-0.7-1.1-1.1-1.7l7.3-17.4c0.4,0.6,0.8,1.1,1.2,1.6L29,133.6z"/>
	</g>
</g>
<g id="XMLID_54_">
	<path id="XMLID_55_" class="st8" d="M146.2,179.9c0-0.2,0.1-0.3,0.2-0.4c0.1-0.1,0.3-0.1,0.5-0.1c0.2,0,0.4,0,0.4,0.1
		c0.1,0.1,0.1,0.2,0.1,0.4v0.9c0,0.6,0.1,1,0.2,1.2c0.1,0.2,0.4,0.4,0.6,0.4h4.2c0.2,0,0.4,0.1,0.5,0.2c0.1,0.1,0.1,0.3,0.1,0.6
		s0,0.4-0.1,0.6c-0.1,0.1-0.2,0.2-0.5,0.2h-4.2c-0.7,0-1.2-0.3-1.6-0.8s-0.5-1.3-0.5-2.3L146.2,179.9L146.2,179.9z"/>
	<path id="XMLID_57_" class="st8" d="M148.3,179c-1.4,0-2.1-1.1-2.1-3.4V173c0-2.3,0.7-3.4,2.1-3.4h2.6c1.4,0,2.1,1.1,2.1,3.4v2.6
		c0,2.3-0.7,3.4-2.1,3.4H148.3z M148.3,171.1c-0.2,0-0.5,0.1-0.6,0.5c-0.2,0.3-0.2,0.8-0.2,1.5v2.5c0,0.7,0.1,1.2,0.2,1.5
		s0.4,0.5,0.6,0.5h2.6c0.2,0,0.4-0.1,0.6-0.5c0.2-0.3,0.3-0.8,0.3-1.5V173c0-0.7-0.1-1.2-0.3-1.5s-0.4-0.5-0.6-0.5H148.3z"/>
	<path id="XMLID_60_" class="st8" d="M146.2,167.1v-4.7c0-2.3,0.7-3.4,2.1-3.4h2.6c1.4,0,2.1,1.1,2.1,3.4v2.8c0,2.3-0.7,3.4-2.1,3.4
		h-6.1c-0.2,0-0.4-0.1-0.5-0.2c-0.1-0.1-0.1-0.3-0.1-0.6s0-0.4,0.1-0.6s0.2-0.2,0.5-0.2L146.2,167.1L146.2,167.1z M147.4,167.1h3.5
		c0.2,0,0.4-0.1,0.6-0.5c0.2-0.3,0.3-0.8,0.3-1.5v-2.7c0-0.7-0.1-1.2-0.3-1.5s-0.4-0.5-0.6-0.5h-2.6c-0.2,0-0.5,0.1-0.6,0.5
		s-0.2,0.8-0.2,1.5L147.4,167.1L147.4,167.1z"/>
	<path id="XMLID_63_" class="st8" d="M148.3,158.1c-1.4,0-2.1-1.1-2.1-3.4v-2.6c0-2.3,0.7-3.4,2.1-3.4h2.6c1.4,0,2.1,1.1,2.1,3.4
		v2.6c0,2.3-0.7,3.4-2.1,3.4H148.3z M148.3,150.2c-0.2,0-0.5,0.1-0.6,0.5c-0.2,0.3-0.2,0.8-0.2,1.5v2.5c0,0.7,0.1,1.2,0.2,1.5
		s0.4,0.5,0.6,0.5h2.6c0.2,0,0.4-0.1,0.6-0.5c0.2-0.3,0.3-0.8,0.3-1.5v-2.5c0-0.7-0.1-1.2-0.3-1.5s-0.4-0.5-0.6-0.5H148.3z"/>
	<path id="XMLID_66_" class="st9" d="M153,146.9c0,0.3,0,0.4-0.1,0.6c-0.1,0.1-0.2,0.2-0.5,0.2h-4.2c-1.4,0-2.1-1.1-2.1-3.4v-2.6
		c0-2.3,0.7-3.4,2.1-3.4h4.2c0.2,0,0.4,0.1,0.5,0.2c0.1,0.1,0.1,0.3,0.1,0.6s0,0.4-0.1,0.6c-0.1,0.1-0.2,0.2-0.5,0.2h-4.2
		c-0.2,0-0.5,0.1-0.6,0.5s-0.2,0.8-0.2,1.5v2.5c0,0.7,0.1,1.2,0.2,1.5s0.4,0.5,0.6,0.5h4.2c0.2,0,0.4,0.1,0.5,0.2
		C153,146.5,153,146.7,153,146.9z"/>
	<path id="XMLID_68_" class="st9" d="M150.2,135.8h0.6c0.2,0,0.4-0.1,0.6-0.5c0.2-0.3,0.3-0.8,0.3-1.5v-1.4c0-0.2,0.1-0.3,0.1-0.4
		c0.1-0.1,0.2-0.1,0.4-0.1s0.4,0,0.5,0.1c0.1,0.1,0.2,0.2,0.2,0.4v1.4c0,2.3-0.7,3.4-2.1,3.4h-2.6c-1.4,0-2.1-1.1-2.1-3.4v-2.8
		c0-1.2,0.2-2.1,0.5-2.6c0.3-0.5,0.9-0.8,1.6-0.8h1.4c0.2,0,0.4,0,0.5,0.1s0.1,0.3,0.1,0.6L150.2,135.8L150.2,135.8z M149.1,135.8
		v-6.5h-0.8c-0.3,0-0.5,0.1-0.6,0.4s-0.2,0.8-0.2,1.5v2.7c0,0.7,0.1,1.2,0.2,1.5s0.4,0.5,0.6,0.5H149.1z"/>
	<path id="XMLID_71_" class="st9" d="M146.1,118c0-0.3,0-0.4,0.1-0.6s0.2-0.2,0.5-0.2h4.2c1.4,0,2.1,1.1,2.1,3.4v2.9
		c0,2.3-0.7,3.4-2.1,3.4h-4.2c-0.2,0-0.4-0.1-0.5-0.2c-0.1-0.1-0.1-0.3-0.1-0.6s0-0.4,0.1-0.6s0.2-0.2,0.5-0.2h4.2
		c0.2,0,0.5-0.2,0.6-0.5c0.2-0.3,0.2-0.8,0.2-1.5v-2.8c0-0.7-0.1-1.2-0.2-1.5c-0.2-0.3-0.4-0.5-0.6-0.5h-4.2c-0.2,0-0.4-0.1-0.5-0.2
		C146.2,118.4,146.1,118.2,146.1,118z"/>
	<path id="XMLID_73_" class="st9" d="M146.2,112.2c0-0.2,0.1-0.3,0.2-0.3c0.1-0.1,0.3-0.1,0.5-0.1c0.2,0,0.4,0,0.4,0.1
		c0.1,0.1,0.1,0.2,0.1,0.3v0.9c0,0.6,0.1,1,0.2,1.2c0.1,0.2,0.4,0.3,0.6,0.3h4.2c0.2,0,0.4,0.1,0.5,0.2c0.1,0.1,0.1,0.3,0.1,0.6
		s0,0.4-0.1,0.6s-0.2,0.2-0.5,0.2h-4.2c-0.7,0-1.2-0.3-1.6-0.8c-0.3-0.5-0.5-1.3-0.5-2.3L146.2,112.2L146.2,112.2z"/>
	<path id="XMLID_75_" class="st9" d="M148.3,111.2c-1.4,0-2.1-1.1-2.1-3.4v-2.6c0-2.3,0.7-3.4,2.1-3.4h2.6c1.4,0,2.1,1.1,2.1,3.4
		v2.6c0,2.3-0.7,3.4-2.1,3.4H148.3z M148.3,103.3c-0.2,0-0.5,0.2-0.6,0.5c-0.2,0.3-0.2,0.8-0.2,1.5v2.5c0,0.7,0.1,1.2,0.2,1.5
		c0.2,0.3,0.4,0.5,0.6,0.5h2.6c0.2,0,0.4-0.2,0.6-0.5c0.2-0.3,0.3-0.8,0.3-1.5v-2.5c0-0.7-0.1-1.2-0.3-1.5c-0.2-0.3-0.4-0.5-0.6-0.5
		H148.3z"/>
</g>
<g>
	<path d="M102.1,59.9h-0.2c-0.8,1.3-1.7,2.4-2.9,3.4c-1.1,1-2.4,1.8-3.7,2.4c-1.3,0.6-2.7,1.1-4.2,1.4c-1.5,0.3-2.9,0.5-4.3,0.5
		c-2.9,0-5.6-0.5-8-1.5c-2.5-1-4.6-2.4-6.3-4.1c-1.8-1.8-3.1-3.9-4.1-6.3c-1-2.4-1.5-5.1-1.5-8c0-2.9,0.5-5.6,1.5-8
		c1-2.4,2.4-4.5,4.1-6.3c1.7-1.8,3.9-3.2,6.3-4.1c2.5-1,5.1-1.5,8-1.5c1.4,0,2.9,0.2,4.3,0.5c1.5,0.3,2.9,0.8,4.2,1.4
		c1.3,0.6,2.6,1.4,3.7,2.4c1.1,1,2.1,2.1,2.9,3.4h0.2V4.6h4.9v62h-4.9V59.9z M102.6,47.6c0-2.1-0.4-4.1-1.2-6
		c-0.8-1.9-1.9-3.5-3.4-4.9c-1.4-1.4-3.1-2.5-5-3.3c-1.9-0.8-4-1.2-6.2-1.2c-2.3,0-4.4,0.4-6.2,1.2c-1.9,0.8-3.4,1.9-4.8,3.3
		c-1.3,1.4-2.3,3-3,4.9c-0.7,1.9-1,3.9-1,6c0,2.1,0.3,4.1,1,6c0.7,1.9,1.7,3.5,3,4.9c1.3,1.4,2.9,2.5,4.8,3.3
		c1.9,0.8,3.9,1.2,6.2,1.2c2.2,0,4.3-0.4,6.2-1.2c1.9-0.8,3.6-1.9,5-3.3c1.4-1.4,2.5-3,3.4-4.9C102.2,51.8,102.6,49.8,102.6,47.6z"
		/>
</g>
<g>
	<path d="M115.1,59.9h0.2c0.8,1.3,1.7,2.4,2.9,3.4c1.1,1,2.4,1.8,3.7,2.4c1.3,0.6,2.7,1.1,4.2,1.4c1.5,0.3,2.9,0.5,4.3,0.5
		c2.9,0,5.6-0.5,8-1.5c2.5-1,4.6-2.4,6.3-4.1c1.8-1.8,3.1-3.9,4.1-6.3c1-2.4,1.5-5.1,1.5-8c0-2.9-0.5-5.6-1.5-8
		c-1-2.4-2.4-4.5-4.1-6.3c-1.7-1.8-3.9-3.2-6.3-4.1c-2.5-1-5.1-1.5-8-1.5c-1.4,0-2.9,0.2-4.3,0.5c-1.5,0.3-2.9,0.8-4.2,1.4
		c-1.3,0.6-2.6,1.4-3.7,2.4c-1.1,1-2.1,2.1-2.9,3.4h-0.2V4.5h-4.9v62h4.9V59.9z M114.6,47.6c0-2.1,0.4-4.1,1.2-6
		c0.8-1.9,1.9-3.5,3.4-4.9c1.4-1.4,3.1-2.5,5-3.3c1.9-0.8,4-1.2,6.2-1.2c2.3,0,4.4,0.4,6.2,1.2c1.9,0.8,3.4,1.9,4.8,3.3
		c1.3,1.4,2.3,3,3,4.9c0.7,1.9,1,3.9,1,6c0,2.1-0.3,4.1-1,6c-0.7,1.9-1.7,3.5-3,4.9c-1.3,1.4-2.9,2.5-4.8,3.3
		c-1.9,0.8-3.9,1.2-6.2,1.2c-2.2,0-4.3-0.4-6.2-1.2c-1.9-0.8-3.6-1.9-5-3.3c-1.4-1.4-2.5-3-3.4-4.9C115,51.7,114.6,49.7,114.6,47.6z
		"/>
</g>
</svg>
